# AST/ASF file generated using VICON BodyLanguage
# -----------------------------------------------
:version 1.10
:name VICON
:units
  mass 1.0
  length 0.45
  angle deg
:documentation
   .ast/.asf automatically generated from VICON data using
   VICON BodyBuilder and BodyLanguage model FoxedUp or BRILLIANT.MOD
:root
   order TX TY TZ RX RY RZ
   axis XYZ
   position 0 0 0  
   orientation 0 0 0 
:bonedata
  begin
     id 1 
     name lhipjoint
     direction 0.623415 -0.642378 0.445763 
     length 2.49859 
     axis 0 0 0  XYZ
  end
  begin
     id 2 
     name lfemur
     direction 0.34202 -0.939693 0  
     length 6.69689  
     axis 0 0 20  XYZ
    dof rx ry rz
    limits (-160.0 20.0)
           (-70.0 70.0)
           (-60.0 70.0)
  end
  begin
     id 3 
     name ltibia
     direction 0.34202 -0.939693 0   
     length 7.37574   
     axis 0 0 20   XYZ
    dof rx
    limits (-10.0 170.0)
  end
  begin
     id 4 
     name lfoot
     direction 0.084323 -0.231675 0.969132   
     length 2.09111   
     axis -90 7.62852e-016 20   XYZ
    dof rx rz
    limits (-45.0 90.0)
           (-70.0 20.0)
  end
  begin
     id 5 
     name ltoes
     direction 1.5357e-011 -4.21957e-011 1   
     length 1.04989   
     axis -90 7.62852e-016 20   XYZ
    dof rx
    limits (-90.0 20.0)
  end
  begin
     id 6 
     name rhipjoint
     direction -0.605402 -0.653903 0.45376   
     length 2.45455  
     axis 0 0 0  XYZ 
  end
  begin
     id 7 
     name rfemur
     direction -0.34202 -0.939693 0   
     length 6.64523   
     axis 0 0 -20   XYZ
    dof rx ry rz
    limits (-160.0 20.0)
           (-70.0 70.0)
           (-70.0 60.0)
  end
  begin
     id 8 
     name rtibia
     direction -0.34202 -0.939693 0   
     length 7.3339   
     axis 0 0 -20   XYZ
    dof rx
    limits (-10.0 170.0)
 end
 begin
     id 9 
     name rfoot
     direction -0.120854 -0.332043 0.93549   
     length 2.23135  
     axis -90 -7.62852e-016 -20   XYZ
    dof rx rz
    limits (-45.0 90.0)
           (-20.0 70.0)
  end
  begin
     id 10 
     name rtoes
     direction -1.53563e-011 -4.21914e-011 1   
     length 1.10614   
     axis -90 -7.62852e-016 -20   XYZ
    dof rx
    limits (-90.0 20.0)
  end
  begin
     id 11 
     name lowerback
     direction 0.0319682 0.998615 -0.0417941   
     length 2.02718   
     axis 0 0 0   XYZ
    dof rx ry rz
    limits (-20.0 45.0)
           (-30.0 30.0)
           (-30.0 30.0)
  end
  begin
     id 12 
     name upperback
     direction 7.63181e-005 0.995808 0.0914691   
     length 1.97539   
     axis 0 0 0   XYZ
    dof rx ry rz
    limits (-20.0 45.0)
           (-30.0 30.0)
           (-30.0 30.0)
  end
  begin
     id 13 
     name thorax
     direction -0.016423 0.993627 0.111514   
     length 2.00349   
     axis 0 0 0   XYZ
    dof rx ry rz
    limits (-20.0 45.0)
           (-30.0 30.0)
           (-30.0 30.0)
  end
  begin
     id 14 
     name lowerneck
     direction -0.174763 0.981668 -0.0760716   
     length 1.71436   
     axis 0 0 0   XYZ
    dof rx ry rz
    limits (-20.0 45.0)
           (-30.0 30.0)
           (-30.0 30.0)
  end
  begin
     id 15 
     name upperneck
     direction 0.345458 0.934587 -0.0848868   
     length 1.72805   
     axis 0 0 0   XYZ
    dof rx ry rz
    limits (-20.0 45.0)
           (-30.0 30.0)
           (-30.0 30.0)
  end
  begin
     id 16
     name head
     direction 0.13001 0.989848 -0.0574291  
     length 1.767  
     axis 0 0 0   XYZ
    dof rx ry rz
    limits (-20.0 45.0)
           (-30.0 30.0)
           (-30.0 30.0)
  end
  begin
     id 17 
     name lclavicle
     direction 0.952951 0.290122 0.0878234  
     length 3.54654  
     axis 0 0 0   XYZ
    dof ry rz
    limits (-20.0 10.0)
           (0.0 20.0)
  end
  begin
     id 18 
     name lhumerus
     direction 1 -4.48957e-011 -4.56525e-028   
     length 5.19807   
     axis 180 -30 -90   XYZ
    dof rx ry rz
    limits (-60.0 90.0)
           (-90.0 90.0)
           (-90.0 90.0)
  end
  begin
     id 19
     name lradius
     direction 1 -4.48979e-011 -2.0317e-027   
     length 3.0937   
     axis 180 -30 -90   XYZ
    dof rx
    limits (-10.0 170.0)
  end
  begin
     id 20
     name lwrist
     direction 1 -4.48953e-011 -3.05809e-027   
     length 1.54685   
     axis 8.48514e-016 90 90   XYZ
    dof ry
    limits (-180.0 0.0)
 end
  begin
     id 21 
     name lhand
     direction 1 -4.48952e-011 -6.11639e-027   
     length 0.672632   
     axis 3.9013e-015 90 90   XYZ
    dof rx rz
    limits (-90.0 90.0)
           (-45.0 45.0)
  end
  begin
     id 22 
     name lfingers
     direction 1 -4.48925e-011 -1.22426e-026   
     length 0.542293   
     axis 7.80276e-015 90 90   XYZ
    dof rx
    limits (0.0 90.0)
  end
  begin
     id 23
     name lthumb
     direction 0.707107 -6.3486e-011 0.707107   
     length 0.778628   
     axis -90 45 5.37419e-014   XYZ
    dof rx rz
    limits (-45.0 45.0)
           (-45.0 45.0)
  end
  begin
     id 24 
     name rclavicle
     direction -0.960732 0.273675 -0.0457849   
     length 3.52079  
     axis 0 0 0   XYZ 
    dof ry rz
    limits (-10.0 20.0)
           (-20.0 0.0)
  end
  begin
     id 25 
     name rhumerus
     direction -1 -4.48976e-011 -1.63613e-027  
     length 5.45222   
     axis 180 30 90   XYZ
    dof rx ry rz
    limits (-90.0 60.0)
           (-90.0 90.0)
           (-90.0 90.0)
  end
  begin
     id 26 
     name rradius
     direction -1 -4.48957e-011 -7.00033e-028   
     length 3.01284   
     axis 180 30 90   XYZ
    dof rx
    limits (-10.0 170.0)
  end
  begin
     id 27 
     name rwrist
     direction -1 -4.48983e-011 -3.05543e-027   
     length 1.50642   
     axis 8.48514e-016 -90 -90   XYZ
    dof ry
    limits (-180.0 0.0)
  end
  begin
     id 28
     name rhand
     direction -1 -4.48984e-011 -6.11072e-027   
     length 0.622296   
     axis 3.9013e-015 -90 -90   XYZ
    dof rx rz
    limits (-90.0 90.0)
           (-45.0 45.0)
  end
  begin
     id 29
     name rfingers
     direction -1 -4.48865e-011 -1.22637e-026   
     length 0.501711   
     axis 7.80276e-015 -90 -90   XYZ
    dof rx
    limits (0.0 90.0)
  end
  begin
     id 30
     name rthumb
     direction -0.707107 -6.34932e-011 0.707107   
     length 0.72036   
     axis -90 -45 -5.37419e-014   XYZ
    dof rx rz
    limits (-45.0 45.0)
           (-45.0 45.0)
  end
:hierarchy
  begin
    root lhipjoint rhipjoint lowerback
    lhipjoint lfemur
    lfemur ltibia
    ltibia lfoot
    lfoot ltoes
    rhipjoint rfemur
    rfemur rtibia
    rtibia rfoot
    rfoot rtoes
    lowerback upperback
    upperback thorax
    thorax lowerneck lclavicle rclavicle
    lowerneck upperneck
    upperneck head
    lclavicle lhumerus
    lhumerus lradius
    lradius lwrist
    lwrist lhand lthumb
    lhand lfingers
    rclavicle rhumerus
    rhumerus rradius
    rradius rwrist
    rwrist rhand rthumb
    rhand rfingers
  end

#!OML:ASF H:\Not Pregnant\Project 1\Capture day 1\Session 1\non-pregnant.ASF
:FULLY-SPECIFIED
:DEGREES
17
root -5.99999 16.265 34.6608 -175.036 -81.2711 -171.153
lowerback -8.64126 1.95072 -0.0482049
upperback -6.41355 2.32819 -0.945903
thorax -1.76434 1.03725 -0.783885
lowerneck 16.7998 -6.26378 -30.5479
upperneck -11.5493 -13.6437 43.8416
head -0.0345908 -9.56014 24.6993
rclavicle -1.15295e-014 4.77083e-015
rhumerus -46.8328 -5.78975 -77.2584
rradius 33.7828
rwrist 20.9543
rhand -6.70244 6.02283
rfingers 7.12502
rthumb 19.157 -23.0537
lclavicle -1.15295e-014 4.77083e-015
lhumerus -59.719 -17.8771 92.1341
lradius 54.3921
lwrist 55.5945
lhand 3.88278 -14.9087
lfingers 7.12502
lthumb 29.3038 12.8024
rfemur -14.6005 -10.0789 20.2588
rtibia 15.2941
rfoot -17.9929 17.3883
rtoes -10.39
lfemur -14.1393 4.77234 -18.9874
ltibia 12.7446
lfoot -12.872 -2.22406
ltoes -21.9483
18
root -5.99107 16.2675 34.659 -175.141 -81.3375 -170.97
lowerback -8.47861 1.94288 -0.109436
upperback -6.40534 2.32462 -0.910521
thorax -1.84896 1.03943 -0.718554
lowerneck 16.7255 -6.26554 -30.5611
upperneck -11.6913 -13.5967 43.8964
head -0.0666228 -9.53685 24.7605
rclavicle -2.80286e-014 2.38542e-015
rhumerus -46.81 -5.65593 -76.8464
rradius 33.7374
rwrist 21.1607
rhand -6.21373 6.05767
rfingers 7.12502
rthumb 19.6269 -22.9716
lclavicle -2.80286e-014 2.38542e-015
lhumerus -60.4969 -18.4275 92.5343
lradius 54.8402
lwrist 55.2538
lhand 2.74699 -15.2804
lfingers 7.12502
lthumb 28.2188 12.615
rfemur -14.7059 -10.1546 20.3246
rtibia 15.2658
rfoot -17.9255 17.4274
rtoes -10.3273
lfemur -14.273 4.72558 -18.9549
ltibia 12.7464
lfoot -12.8246 -2.25286
ltoes -21.9228
19
root -5.98196 16.27 34.6568 -175.243 -81.4098 -170.794
lowerback -8.30744 1.93306 -0.168908
upperback -6.39467 2.31833 -0.879105
thorax -1.93557 1.04026 -0.658713
lowerneck 16.6535 -6.26294 -30.5775
upperneck -11.8225 -13.5483 43.9554
head -0.0962843 -9.51364 24.8281
rclavicle -2.91965e-015 -1.59028e-015
rhumerus -46.7638 -5.52662 -76.4284
rradius 33.6931
rwrist 21.3412
rhand -5.65378 6.03624
rfingers 7.12502
rthumb 20.1651 -22.9372
lclavicle -2.91965e-015 -1.59028e-015
lhumerus -61.2921 -18.9829 92.9559
lradius 55.2556
lwrist 54.9022
lhand 1.6145 -15.6199
lfingers 7.12502
lthumb 27.1359 12.4494
rfemur -14.8066 -10.2207 20.3876
rtibia 15.2402
rfoot -17.8627 17.4467
rtoes -10.2944
lfemur -14.4014 4.68149 -18.924
ltibia 12.7435
lfoot -12.7754 -2.29213
ltoes -21.8703
20
root -5.97264 16.2724 34.6545 -175.303 -81.4858 -170.665
lowerback -8.13003 1.92661 -0.22434
upperback -6.37971 2.31632 -0.86123
thorax -2.02045 1.04301 -0.614927
lowerneck 16.5879 -6.26075 -30.5819
upperneck -11.9475 -13.502 44.0191
head -0.12557 -9.49333 24.8967
rclavicle -1.24737e-014 -1.98785e-014
rhumerus -46.694 -5.44724 -75.9889
rradius 33.6539
rwrist 21.5282
rhand -5.00547 5.97942
rfingers 7.12502
rthumb 20.7882 -22.927
lclavicle -1.24737e-014 -1.98785e-014
lhumerus -62.1009 -19.5578 93.402
lradius 55.6334
lwrist 54.4956
lhand 0.470808 -15.9397
lfingers 7.12502
lthumb 26.0412 12.2954
rfemur -14.9042 -10.2678 20.4398
rtibia 15.2195
rfoot -17.8053 17.4374
rtoes -10.2916
lfemur -14.5234 4.63762 -18.9016
ltibia 12.7328
lfoot -12.7234 -2.33437
ltoes -21.8348
21
root -5.96312 16.2747 34.6519 -175.312 -81.5661 -170.59
lowerback -7.94756 1.92138 -0.281593
upperback -6.36084 2.31599 -0.853351
thorax -2.10378 1.04661 -0.580418
lowerneck 16.5304 -6.25766 -30.5734
upperneck -12.0655 -13.4551 44.0826
head -0.156602 -9.47389 24.9627
rclavicle 2.95692e-014 -1.27222e-014
rhumerus -46.6018 -5.40392 -75.5315
rradius 33.629
rwrist 21.705
rhand -4.26516 5.89351
rfingers 7.12502
rthumb 21.4993 -22.9334
lclavicle 2.95692e-014 -1.27222e-014
lhumerus -62.9274 -20.1431 93.8832
lradius 55.9678
lwrist 53.9789
lhand -0.709244 -16.2647
lfingers 7.12502
lthumb 24.9109 12.1319
rfemur -14.9992 -10.3017 20.4813
rtibia 15.2029
rfoot -17.7566 17.4041
rtoes -10.3243
lfemur -14.6393 4.60022 -18.8897
ltibia 12.7141
lfoot -12.671 -2.38452
ltoes -21.8146
22
root -5.95343 16.277 34.6492 -175.286 -81.6467 -170.553
lowerback -7.76255 1.9217 -0.337087
upperback -6.33656 2.32294 -0.858368
thorax -2.18231 1.05369 -0.559752
lowerneck 16.4772 -6.25795 -30.5408
upperneck -12.177 -13.41 44.1447
head -0.188931 -9.4565 25.0194
rclavicle -2.95195e-014 -1.31198e-014
rhumerus -46.4845 -5.4292 -75.0467
rradius 33.6167
rwrist 21.8924
rhand -3.43428 5.79416
rfingers 7.12502
rthumb 22.2971 -22.9394
lclavicle -2.95195e-014 -1.31198e-014
lhumerus -63.7719 -20.751 94.4027
lradius 56.2631
lwrist 53.314
lhand -1.94399 -16.5732
lfingers 7.12502
lthumb 23.7271 11.9821
rfemur -15.0928 -10.3309 20.5157
rtibia 15.1889
rfoot -17.7111 17.3669
rtoes -10.3548
lfemur -14.75 4.57132 -18.8847
ltibia 12.6886
lfoot -12.6183 -2.44385
ltoes -21.783
23
root -5.94341 16.2795 34.6466 -175.268 -81.7275 -170.505
lowerback -7.57795 1.92439 -0.388376
upperback -6.30922 2.33275 -0.86513
thorax -2.25728 1.06212 -0.543057
lowerneck 16.4225 -6.25947 -30.492
upperneck -12.2779 -13.3622 44.1954
head -0.222863 -9.43642 25.0599
rclavicle 2.02263e-014 -1.98785e-015
rhumerus -46.3415 -5.47954 -74.5437
rradius 33.628
rwrist 22.0639
rhand -2.53252 5.68574
rfingers 7.12502
rthumb 23.1626 -22.9417
lclavicle 2.02263e-014 -1.98785e-015
lhumerus -64.632 -21.3513 94.9578
lradius 56.529
lwrist 52.5618
lhand -3.1873 -16.8399
lfingers 7.12502
lthumb 22.5342 11.8651
rfemur -15.1904 -10.3532 20.5516
rtibia 15.1727
rfoot -17.6671 17.3201
rtoes -10.4
lfemur -14.8646 4.53573 -18.8784
ltibia 12.6614
lfoot -12.5626 -2.49548
ltoes -21.7466
24
root -5.93307 16.2821 34.6441 -175.272 -81.8039 -170.429
lowerback -7.39467 1.93012 -0.441032
upperback -6.27991 2.34658 -0.869141
thorax -2.32972 1.07272 -0.522543
lowerneck 16.364 -6.26317 -30.4253
upperneck -12.3647 -13.3123 44.2315
head -0.257271 -9.41329 25.0796
rclavicle -1.43373e-014 -7.15625e-015
rhumerus -46.1676 -5.55401 -74.0245
rradius 33.6547
rwrist 22.2254
rhand -1.59721 5.56512
rfingers 7.12502
rthumb 24.0597 -22.9467
lclavicle -1.43373e-014 -7.15625e-015
lhumerus -65.5061 -21.9324 95.5346
lradius 56.7846
lwrist 51.8975
lhand -4.35342 -17.0444
lfingers 7.12502
lthumb 21.4145 11.7921
rfemur -15.2923 -10.3681 20.5929
rtibia 15.1516
rfoot -17.6188 17.273
rtoes -10.4436
lfemur -14.9854 4.5008 -18.8671
ltibia 12.6354
lfoot -12.507 -2.54278
ltoes -21.7235
25
root -5.92236 16.2849 34.642 -175.329 -81.8791 -170.292
lowerback -7.21259 1.93727 -0.485403
upperback -6.25078 2.36172 -0.869051
thorax -2.40163 1.08377 -0.50242
lowerneck 16.2983 -6.27042 -30.3416
upperneck -12.4327 -13.2627 44.2519
head -0.289077 -9.38796 25.076
rclavicle 4.74847e-014 -1.23246e-014
rhumerus -45.9654 -5.65857 -73.4916
rradius 33.6997
rwrist 22.3908
rhand -0.671193 5.43483
rfingers 7.12502
rthumb 24.9473 -22.9567
lclavicle 4.74847e-014 -1.23246e-014
lhumerus -66.4001 -22.4895 96.1371
lradius 57.0354
lwrist 51.2893
lhand -5.45105 -17.1793
lfingers 7.12502
lthumb 20.36 11.7734
rfemur -15.4047 -10.3788 20.6438
rtibia 15.129
rfoot -17.5649 17.2274
rtoes -10.4772
lfemur -15.1151 4.45958 -18.8472
ltibia 12.6064
lfoot -12.4451 -2.58071
ltoes -21.7097
26
root -5.91138 16.2878 34.6401 -175.404 -81.9545 -170.131
lowerback -7.03225 1.93681 -0.535407
upperback -6.22038 2.36701 -0.855668
thorax -2.47222 1.09037 -0.465955
lowerneck 16.2158 -6.27115 -30.27
upperneck -12.4671 -13.2066 44.2574
head -0.31269 -9.3549 25.0604
rclavicle -1.92697e-014 -1.94809e-014
rhumerus -45.7223 -5.75286 -72.9534
rradius 33.7616
rwrist 22.5636
rhand 0.223965 5.28799
rfingers 7.12502
rthumb 25.8049 -22.9818
lclavicle -1.92697e-014 -1.94809e-014
lhumerus -67.3145 -22.9899 96.7699
lradius 57.28
lwrist 50.7225
lhand -6.49381 -17.2585
lfingers 7.12502
lthumb 19.3576 11.798
rfemur -15.5248 -10.4067 20.7014
rtibia 15.1044
rfoot -17.5075 17.202
rtoes -10.4969
lfemur -15.2508 4.41897 -18.8248
ltibia 12.5753
lfoot -12.3811 -2.61747
ltoes -21.7069
27
root -5.9004 16.2907 34.6387 -175.375 -82.0431 -170.071
lowerback -6.85347 1.9281 -0.597524
upperback -6.18898 2.36167 -0.840611
thorax -2.54162 1.0921 -0.421459
lowerneck 16.1255 -6.26704 -30.2101
upperneck -12.4711 -13.1502 44.2559
head -0.326875 -9.31929 25.0401
rclavicle -2.70968e-014 1.15295e-014
rhumerus -45.4471 -5.83572 -72.4239
rradius 33.8465
rwrist 22.7462
rhand 1.06555 5.12088
rfingers 7.12502
rthumb 26.6106 -23.0292
lclavicle -2.70968e-014 1.15295e-014
lhumerus -68.2625 -23.4521 97.4537
lradius 57.5162
lwrist 50.1288
lhand -7.53613 -17.2941
lfingers 7.12502
lthumb 18.3551 11.8599
rfemur -15.6541 -10.4994 20.7481
rtibia 15.0803
rfoot -17.452 17.2325
rtoes -10.4835
lfemur -15.3929 4.37933 -18.824
ltibia 12.5396
lfoot -12.3151 -2.67134
ltoes -21.6992
28
root -5.88913 16.2939 34.6377 -175.366 -82.1329 -169.983
lowerback -6.67968 1.91182 -0.656827
upperback -6.15492 2.34617 -0.814809
thorax -2.6059 1.0889 -0.367683
lowerneck 16.0187 -6.25781 -30.1737
upperneck -12.4381 -13.0959 44.2512
head -0.325197 -9.2818 25.0202
rclavicle 4.27822e-014 -3.97569e-016
rhumerus -45.1237 -5.89887 -71.9037
rradius 33.9498
rwrist 22.9472
rhand 1.84137 4.94253
rfingers 7.12502
rthumb 27.3529 -23.0927
lclavicle 4.27822e-014 -3.97569e-016
lhumerus -69.2346 -23.8576 98.1861
lradius 57.7426
lwrist 49.5333
lhand -8.57414 -17.2905
lfingers 7.12502
lthumb 17.3563 11.9545
rfemur -15.7952 -10.6151 20.8031
rtibia 15.0544
rfoot -17.3915 17.2879
rtoes -10.4491
lfemur -15.5445 4.33278 -18.8199
ltibia 12.5026
lfoot -12.2433 -2.71935
ltoes -21.6887
29
root -5.87756 16.2972 34.6366 -175.343 -82.221 -169.9
lowerback -6.5131 1.89098 -0.713517
upperback -6.11738 2.32441 -0.789187
thorax -2.66248 1.08248 -0.315435
lowerneck 15.9012 -6.24443 -30.1466
upperneck -12.3742 -13.0431 44.2481
head -0.311654 -9.24395 25.0018
rclavicle -1.13028e-014 1.11319e-014
rhumerus -44.7604 -5.96825 -71.4061
rradius 34.0761
rwrist 23.1796
rhand 2.53406 4.7545
rfingers 7.12502
rthumb 28.0152 -23.1744
lclavicle -1.13028e-014 1.11319e-014
lhumerus -70.2371 -24.2263 98.9695
lradius 57.9557
lwrist 48.8972
lhand -9.64093 -17.2576
lfingers 7.12502
lthumb 16.3294 12.0749
rfemur -15.9464 -10.7365 20.8621
rtibia 15.0229
rfoot -17.3232 17.3521
rtoes -10.403
lfemur -15.709 4.2868 -18.8168
ltibia 12.4687
lfoot -12.1689 -2.76373
ltoes -21.6841
30
root -5.86569 16.3006 34.6359 -175.399 -82.3067 -169.733
lowerback -6.35075 1.87476 -0.739763
upperback -6.07358 2.30768 -0.772373
thorax -2.70856 1.07741 -0.28869
lowerneck 15.7815 -6.23774 -30.1008
upperneck -12.2954 -13.0001 44.2481
head -0.290679 -9.21225 24.9754
rclavicle -1.50727e-014 5.1684e-015
rhumerus -44.3591 -6.05568 -70.9409
rradius 34.2244
rwrist 23.4143
rhand 3.11361 4.539
rfingers 7.12502
rthumb 28.5691 -23.298
lclavicle -1.50727e-014 5.1684e-015
lhumerus -71.2703 -24.5892 99.8046
lradius 58.1644
lwrist 48.2843
lhand -10.7045 -17.1856
lfingers 7.12502
lthumb 15.3052 12.2281
rfemur -16.099 -10.8421 20.9319
rtibia 14.9802
rfoot -17.2418 17.4056
rtoes -10.3514
lfemur -15.8856 4.22676 -18.8006
ltibia 12.4451
lfoot -12.0923 -2.79105
ltoes -21.6791
